<svg width="255" height="31" viewBox="0 0 255 31" fill="none" xmlns="http://www.w3.org/2000/svg">
<path d="M10.7521 30.259C8.85273 30.259 7.15073 29.9507 5.64606 29.334C4.14139 28.7173 2.93273 27.8047 2.02006 26.596C1.13206 25.3873 0.663392 23.932 0.614059 22.23H7.34806C7.44673 23.192 7.77973 23.932 8.34706 24.45C8.91439 24.9433 9.65439 25.19 10.5671 25.19C11.5044 25.19 12.2444 24.9803 12.7871 24.561C13.3297 24.117 13.6011 23.5127 13.6011 22.748C13.6011 22.1067 13.3791 21.5763 12.9351 21.157C12.5157 20.7377 11.9854 20.3923 11.3441 20.121C10.7274 19.8497 9.83939 19.5413 8.68006 19.196C7.00273 18.678 5.63373 18.16 4.57306 17.642C3.51239 17.124 2.59973 16.3593 1.83506 15.348C1.07039 14.3367 0.688059 13.017 0.688059 11.389C0.688059 8.97167 1.56373 7.08467 3.31506 5.728C5.06639 4.34667 7.34806 3.656 10.1601 3.656C13.0214 3.656 15.3277 4.34667 17.0791 5.728C18.8304 7.08467 19.7677 8.984 19.8911 11.426H13.0461C12.9967 10.5873 12.6884 9.93367 12.1211 9.465C11.5537 8.97167 10.8261 8.725 9.93806 8.725C9.17339 8.725 8.55673 8.93467 8.08806 9.354C7.61939 9.74866 7.38506 10.3283 7.38506 11.093C7.38506 11.9317 7.77973 12.5853 8.56906 13.054C9.35839 13.5227 10.5917 14.0283 12.2691 14.571C13.9464 15.1383 15.3031 15.681 16.3391 16.199C17.3997 16.717 18.3124 17.4693 19.0771 18.456C19.8417 19.4427 20.2241 20.713 20.2241 22.267C20.2241 23.747 19.8417 25.0913 19.0771 26.3C18.3371 27.5087 17.2517 28.4707 15.8211 29.186C14.3904 29.9013 12.7007 30.259 10.7521 30.259ZM53.7547 9.354L48.1677 30H41.1747L37.9187 16.606L34.5517 30H27.5957L21.9717 9.354H28.2987L31.2217 24.117L34.6997 9.354H41.3967L44.9117 24.043L47.7977 9.354H53.7547ZM59.3495 7.208C58.2395 7.208 57.3269 6.88733 56.6115 6.246C55.9209 5.58 55.5755 4.766 55.5755 3.804C55.5755 2.81733 55.9209 2.00333 56.6115 1.362C57.3269 0.695998 58.2395 0.362998 59.3495 0.362998C60.4349 0.362998 61.3229 0.695998 62.0135 1.362C62.7289 2.00333 63.0865 2.81733 63.0865 3.804C63.0865 4.766 62.7289 5.58 62.0135 6.246C61.3229 6.88733 60.4349 7.208 59.3495 7.208ZM62.4945 9.354V30H56.1675V9.354H62.4945ZM77.4396 14.608H74.0356V30H67.7086V14.608H65.4146V9.354H67.7086V8.762C67.7086 6.22133 68.4363 4.29733 69.8916 2.99C71.347 1.658 73.4806 0.991999 76.2926 0.991999C76.7613 0.991999 77.1066 1.00433 77.3286 1.029V6.394C76.12 6.32 75.269 6.49267 74.7756 6.912C74.2823 7.33133 74.0356 8.08367 74.0356 9.169V9.354H77.4396V14.608ZM91.9197 24.635V30H88.7007C86.4067 30 84.6183 29.445 83.3357 28.335C82.053 27.2003 81.4117 25.3627 81.4117 22.822V14.608H78.8957V9.354H81.4117V4.322H87.7387V9.354H91.8827V14.608H87.7387V22.896C87.7387 23.5127 87.8867 23.9567 88.1827 24.228C88.4787 24.4993 88.972 24.635 89.6627 24.635H91.9197ZM94.3709 16.976C94.3709 14.4107 94.9259 12.129 96.0359 10.131C97.1459 8.10833 98.6876 6.542 100.661 5.432C102.659 4.29733 104.916 3.73 107.432 3.73C110.515 3.73 113.155 4.544 115.35 6.172C117.545 7.8 119.013 10.02 119.753 12.832H112.797C112.279 11.7467 111.539 10.9203 110.577 10.353C109.64 9.78567 108.567 9.502 107.358 9.502C105.409 9.502 103.831 10.1803 102.622 11.537C101.413 12.8937 100.809 14.7067 100.809 16.976C100.809 19.2453 101.413 21.0583 102.622 22.415C103.831 23.7717 105.409 24.45 107.358 24.45C108.567 24.45 109.64 24.1663 110.577 23.599C111.539 23.0317 112.279 22.2053 112.797 21.12H119.753C119.013 23.932 117.545 26.152 115.35 27.78C113.155 29.3833 110.515 30.185 107.432 30.185C104.916 30.185 102.659 29.63 100.661 28.52C98.6876 27.3853 97.1459 25.819 96.0359 23.821C94.9259 21.823 94.3709 19.5413 94.3709 16.976ZM122.369 19.64C122.369 17.5187 122.764 15.6563 123.553 14.053C124.367 12.4497 125.465 11.2163 126.846 10.353C128.228 9.48967 129.769 9.058 131.471 9.058C132.927 9.058 134.197 9.354 135.282 9.946C136.392 10.538 137.243 11.315 137.835 12.277V9.354H144.162V30H137.835V27.077C137.219 28.039 136.355 28.816 135.245 29.408C134.16 30 132.89 30.296 131.434 30.296C129.757 30.296 128.228 29.8643 126.846 29.001C125.465 28.113 124.367 26.8673 123.553 25.264C122.764 23.636 122.369 21.7613 122.369 19.64ZM137.835 19.677C137.835 18.0983 137.391 16.8527 136.503 15.94C135.64 15.0273 134.579 14.571 133.321 14.571C132.063 14.571 130.99 15.0273 130.102 15.94C129.239 16.828 128.807 18.0613 128.807 19.64C128.807 21.2187 129.239 22.4767 130.102 23.414C130.99 24.3267 132.063 24.783 133.321 24.783C134.579 24.783 135.64 24.3267 136.503 23.414C137.391 22.5013 137.835 21.2557 137.835 19.677ZM161.32 9.132C163.737 9.132 165.661 9.92133 167.092 11.5C168.547 13.054 169.275 15.2 169.275 17.938V30H162.985V18.789C162.985 17.4077 162.627 16.3347 161.912 15.57C161.196 14.8053 160.234 14.423 159.026 14.423C157.817 14.423 156.855 14.8053 156.14 15.57C155.424 16.3347 155.067 17.4077 155.067 18.789V30H148.74V9.354H155.067V12.092C155.708 11.1793 156.571 10.464 157.657 9.946C158.742 9.40333 159.963 9.132 161.32 9.132ZM185.178 24.635V30H181.959C179.665 30 177.877 29.445 176.594 28.335C175.312 27.2003 174.67 25.3627 174.67 22.822V14.608H172.154V9.354H174.67V4.322H180.997V9.354H185.141V14.608H180.997V22.896C180.997 23.5127 181.145 23.9567 181.441 24.228C181.737 24.4993 182.231 24.635 182.921 24.635H185.178ZM208.165 19.344C208.165 19.936 208.128 20.5527 208.054 21.194H193.735C193.833 22.4767 194.24 23.4633 194.956 24.154C195.696 24.82 196.596 25.153 197.657 25.153C199.235 25.153 200.333 24.487 200.95 23.155H207.684C207.338 24.5117 206.709 25.7327 205.797 26.818C204.909 27.9033 203.786 28.7543 202.43 29.371C201.073 29.9877 199.556 30.296 197.879 30.296C195.856 30.296 194.055 29.8643 192.477 29.001C190.898 28.1377 189.665 26.9043 188.777 25.301C187.889 23.6977 187.445 21.823 187.445 19.677C187.445 17.531 187.876 15.6563 188.74 14.053C189.628 12.4497 190.861 11.2163 192.44 10.353C194.018 9.48967 195.831 9.058 197.879 9.058C199.877 9.058 201.653 9.47733 203.207 10.316C204.761 11.1547 205.969 12.351 206.833 13.905C207.721 15.459 208.165 17.272 208.165 19.344ZM201.69 17.679C201.69 16.5937 201.32 15.7303 200.58 15.089C199.84 14.4477 198.915 14.127 197.805 14.127C196.744 14.127 195.844 14.4353 195.104 15.052C194.388 15.6687 193.944 16.5443 193.772 17.679H201.69ZM230.964 19.344C230.964 19.936 230.927 20.5527 230.853 21.194H216.534C216.633 22.4767 217.04 23.4633 217.755 24.154C218.495 24.82 219.396 25.153 220.456 25.153C222.035 25.153 223.133 24.487 223.749 23.155H230.483C230.138 24.5117 229.509 25.7327 228.596 26.818C227.708 27.9033 226.586 28.7543 225.229 29.371C223.873 29.9877 222.356 30.296 220.678 30.296C218.656 30.296 216.855 29.8643 215.276 29.001C213.698 28.1377 212.464 26.9043 211.576 25.301C210.688 23.6977 210.244 21.823 210.244 19.677C210.244 17.531 210.676 15.6563 211.539 14.053C212.427 12.4497 213.661 11.2163 215.239 10.353C216.818 9.48967 218.631 9.058 220.678 9.058C222.676 9.058 224.452 9.47733 226.006 10.316C227.56 11.1547 228.769 12.351 229.632 13.905C230.52 15.459 230.964 17.272 230.964 19.344ZM224.489 17.679C224.489 16.5937 224.119 15.7303 223.379 15.089C222.639 14.4477 221.714 14.127 220.604 14.127C219.544 14.127 218.643 14.4353 217.903 15.052C217.188 15.6687 216.744 16.5443 216.571 17.679H224.489ZM246.882 9.132C249.3 9.132 251.224 9.92133 252.654 11.5C254.11 13.054 254.837 15.2 254.837 17.938V30H248.547V18.789C248.547 17.4077 248.19 16.3347 247.474 15.57C246.759 14.8053 245.797 14.423 244.588 14.423C243.38 14.423 242.418 14.8053 241.702 15.57C240.987 16.3347 240.629 17.4077 240.629 18.789V30H234.302V9.354H240.629V12.092C241.271 11.1793 242.134 10.464 243.219 9.946C244.305 9.40333 245.526 9.132 246.882 9.132Z" fill="black"/>
</svg>
